<svg width="331" height="72" viewBox="0 0 331 72" fill="none" xmlns="http://www.w3.org/2000/svg">
<path d="M96.208 44.504H109.84V53H84.4V44.984L97.84 27.464H84.4V19.016H109.84V27.032L96.208 44.504ZM131.194 53.336C127.994 53.336 125.05 52.584 122.362 51.08C119.706 49.576 117.594 47.496 116.026 44.84C114.458 42.184 113.674 39.192 113.674 35.864C113.674 32.536 114.458 29.544 116.026 26.888C117.594 24.232 119.706 22.168 122.362 20.696C125.05 19.192 127.994 18.44 131.194 18.44C134.394 18.44 137.322 19.192 139.978 20.696C142.634 22.168 144.73 24.232 146.266 26.888C147.834 29.544 148.618 32.536 148.618 35.864C148.618 39.192 147.834 42.184 146.266 44.84C144.73 47.496 142.618 49.576 139.93 51.08C137.274 52.584 134.362 53.336 131.194 53.336ZM131.194 43.4C133.306 43.4 134.938 42.728 136.09 41.384C137.242 40.008 137.818 38.168 137.818 35.864C137.818 33.528 137.242 31.688 136.09 30.344C134.938 28.968 133.306 28.28 131.194 28.28C129.05 28.28 127.402 28.968 126.25 30.344C125.098 31.688 124.522 33.528 124.522 35.864C124.522 38.168 125.098 40.008 126.25 41.384C127.402 42.728 129.05 43.4 131.194 43.4ZM179.151 19.016V27.464H170.127V53H159.471V27.464H150.543V19.016H179.151Z" fill="#DBB504"/>
<path d="M195.337 53.336C191.273 53.336 187.913 52.392 185.257 50.504C182.633 48.584 181.209 45.784 180.985 42.104H192.313C192.473 44.056 193.337 45.032 194.905 45.032C195.481 45.032 195.961 44.904 196.345 44.648C196.761 44.36 196.969 43.928 196.969 43.352C196.969 42.552 196.537 41.912 195.673 41.432C194.809 40.92 193.465 40.344 191.641 39.704C189.465 38.936 187.657 38.184 186.217 37.448C184.809 36.712 183.593 35.64 182.569 34.232C181.545 32.824 181.049 31.016 181.081 28.808C181.081 26.6 181.641 24.728 182.761 23.192C183.913 21.624 185.465 20.44 187.417 19.64C189.401 18.84 191.625 18.44 194.089 18.44C198.249 18.44 201.545 19.4 203.977 21.32C206.441 23.24 207.737 25.944 207.865 29.432H196.393C196.361 28.472 196.121 27.784 195.673 27.368C195.225 26.952 194.681 26.744 194.041 26.744C193.593 26.744 193.225 26.904 192.937 27.224C192.649 27.512 192.505 27.928 192.505 28.472C192.505 29.24 192.921 29.88 193.753 30.392C194.617 30.872 195.977 31.464 197.833 32.168C199.977 32.968 201.737 33.736 203.113 34.472C204.521 35.208 205.737 36.232 206.761 37.544C207.785 38.856 208.297 40.504 208.297 42.488C208.297 44.568 207.785 46.44 206.761 48.104C205.737 49.736 204.249 51.016 202.297 51.944C200.345 52.872 198.025 53.336 195.337 53.336ZM261.001 19.016L253.225 53H239.977L236.041 33.704L232.105 53H218.857L211.081 19.016H222.553L225.625 40.424L230.233 19.016H241.849L246.457 40.424L249.529 19.016H261.001ZM286.614 47.864H275.286L273.606 53H262.422L274.854 19.016H287.142L299.526 53H288.294L286.614 47.864ZM284.022 39.848L280.95 30.392L277.878 39.848H284.022ZM329.739 30.68C329.739 32.824 329.243 34.776 328.251 36.536C327.259 38.264 325.787 39.64 323.835 40.664C321.915 41.688 319.579 42.2 316.827 42.2H312.603V53H301.947V19.016H316.827C320.987 19.016 324.171 20.072 326.379 22.184C328.619 24.296 329.739 27.128 329.739 30.68ZM315.627 33.8C317.835 33.8 318.939 32.76 318.939 30.68C318.939 28.6 317.835 27.56 315.627 27.56H312.603V33.8H315.627Z" fill="#0064A4"/>
<rect x="6" y="45.4789" width="46" height="14" rx="2" fill="#DBB504"/>
<path d="M69.6172 50.8011C70.9856 51.561 70.9901 53.5274 69.6252 54.2936L50.0971 65.2554C48.7657 66.0028 47.1217 65.0428 47.1182 63.516L47.0681 41.6821C47.0646 40.1552 48.7042 39.1877 50.039 39.929L69.6172 50.8011Z" fill="#DBB504"/>
<rect x="67.1022" y="28.6777" width="46" height="14" rx="2" transform="rotate(179.222 67.1022 28.6777)" fill="#0064A4"/>
<path d="M3.41869 24.2201C2.04005 23.4789 2.00883 21.5127 3.36324 20.728L22.7406 9.50197C24.0617 8.73658 25.7186 9.67413 25.7429 11.2008L26.0896 33.032C26.1138 34.5587 24.4875 35.5483 23.1427 34.8253L3.41869 24.2201Z" fill="#0064A4"/>
</svg>
